<?xml version="1.0" encoding="UTF-8"?>
<svg width="1022" height="972" viewBox="0 0 1022 972" xmlns="http://www.w3.org/2000/svg" xmlns:xlink="http://www.w3.org/1999/xlink"><g class="drawing-elements"><path d="M0 0 C0.66 0 1.32 0 2 0 C3.723371 2.0273165 5.3381071 4.06531385 6.9375 6.1875 C10.6817276 11.06093909 14.49443729 15.83886356 18.5 20.5 C22.21316953 24.83685057 25.80722265 29.24348867 29.3125 33.75 C35.20528423 41.3247587 41.31473805 48.71434762 47.43408203 56.10644531 C55.92977271 66.37968774 64.30446391 76.75315263 72.70703125 87.10253906 C80.58956541 96.81263613 80.58956541 96.81263613 88.5 106.5 C94.92765227 114.34689665 101.3135849 122.22777362 107.70703125 130.10253906 C115.58956541 139.81263613 115.58956541 139.81263613 123.5 149.5 C129.92765227 157.34689665 136.3135849 165.22777362 142.70703125 173.10253906 C150.58956541 182.81263613 150.58956541 182.81263613 158.5 192.5 C162.64548971 197.56082594 166.77719936 202.63277747 170.89331055 207.7175293 C173.81387809 211.32317353 176.75242963 214.9116703 179.72265625 218.4765625 C180.32368164 219.20270752 180.92470703 219.92885254 181.54394531 220.67700195 C182.70277314 222.07626576 183.86729966 223.47083401 185.03808594 224.86010742 C185.81780762 225.80527222 185.81780762 225.80527222 186.61328125 226.76953125 C187.07516846 227.32229736 187.53705566 227.87506348 188.01293945 228.44458008 C189 230 189 230 189 233 C185.15514146 230.20373925 182.21608024 227.05930619 179.15234375 223.47265625 C175.98750462 219.83682472 172.69458695 216.32283441 169.4128418 212.79272461 C166.62658371 209.78752435 163.90152539 206.75088085 161.25 203.625 C157.81824855 199.6747825 154.00518402 196.35494689 150 193 C149.16082031 192.26136719 148.32164062 191.52273437 147.45703125 190.76171875 C130.33273966 175.95215899 111.17437142 165.89316204 90.35766602 157.20629883 C75.50322932 150.97808101 64.16151979 141.9403196 54.8125 128.8125 C54.25425537 128.03060303 53.69601074 127.24870605 53.12084961 126.44311523 C29.85492464 93.38101132 -1.09163929 42.06021979 0 0 Z " fill="#F0ECE3" transform="translate(210,1)"/><path d="M0 0 C12.18595915 5.16547683 22.52923955 19.44716424 31.77661133 28.81323242 C32.25851929 29.29944061 32.74042725 29.7856488 33.23693848 30.28659058 C34.55554154 31.61722928 35.87126024 32.95072452 37.18676758 34.28442383 C39.36892884 36.39083532 41.57179645 38.38703702 43.86376953 40.36816406 C47.92159957 43.88834989 51.74377547 47.59890942 55.53515625 51.40234375 C56.21750839 52.08373917 56.89986053 52.76513458 57.60289001 53.46717834 C59.03344437 54.89705741 60.46275767 56.32817911 61.89086914 57.76049805 C64.05699074 59.93197711 66.22840174 62.09806325 68.40039062 64.26367188 C69.79979987 65.66374202 71.19889884 67.06412238 72.59765625 68.46484375 C73.23639175 69.10155502 73.87512726 69.7382663 74.53321838 70.39427185 C77.55299626 73.42954478 80.46717499 76.50301887 83.25170898 79.75610352 C87.52211884 84.69408764 92.15393769 89.26642357 96.78594971 93.8611145 C98.41233269 95.47453514 100.03539696 97.09123271 101.65771484 98.70874023 C105.10231484 102.14200746 108.55084781 105.57130684 112 109 C116.00232205 112.97858183 120.00293815 116.9588492 123.99932861 120.94338989 C125.58521006 122.52287066 127.17411096 124.09926797 128.76318359 125.67553711 C133.51152695 130.40008649 138.13183383 135.17287202 142.48828125 140.26342773 C144.7719302 142.88674733 147.21225557 145.30582558 149.6875 147.75 C150.19369873 148.25241211 150.69989746 148.75482422 151.22143555 149.27246094 C152.8118185 150.85082712 154.40544445 152.42585009 156 154 C168.03911567 165.88505021 168.03911567 165.88505021 173.45703125 172.234375 C175.99280373 175.13606907 178.74536087 177.80815533 181.5 180.5 C186.21689329 185.16372055 190.75383938 189.89766531 195 195 C195.50402344 195.59941406 196.00804687 196.19882812 196.52734375 196.81640625 C197.69107176 198.20578789 198.84664578 199.60199489 200 201 C199.34 201.33 198.68 201.66 198 202 C195.5462081 201.15249332 193.24182652 200.23824611 190.875 199.1875 C190.16504883 198.87345215 189.45509766 198.5594043 188.72363281 198.23583984 C176.13055257 192.47765529 164.86639442 184.51651883 154 176 C152.8920178 175.13790423 151.78394148 174.27592941 150.67578125 173.4140625 C145.8499652 169.64740579 141.0424881 165.86143774 136.3046875 161.984375 C123.60456595 151.60925277 111.217296 143.41823998 96.3125 136.4375 C87.01977364 132.07402474 78.60071061 128.01234596 71 121 C69.54400391 119.68515625 69.54400391 119.68515625 68.05859375 118.34375 C48.80181935 100.34734058 35.80063828 76.3934714 24.07183838 53.11895752 C22.83430189 50.67242519 21.58817275 48.23036585 20.34130859 45.78857422 C17.82924676 40.86794265 15.3294942 35.94120796 12.83685303 31.01071167 C11.8249817 29.01218984 10.81007254 27.01520305 9.79205322 25.01980591 C8.34752216 22.18476953 6.916408 19.34332791 5.48828125 16.5 C5.05029709 15.64663559 4.61231293 14.79327118 4.16105652 13.91404724 C1.80947287 9.1945943 0.39807401 5.27104902 0 0 Z " fill="#F0ECE3" transform="translate(179,75)"/><path d="M0 0 C3.36235442 3.10696561 4.95393778 6.77696617 6.81640625 10.890625 C7.18467026 11.68978333 7.55293427 12.48894165 7.93235779 13.31231689 C9.1486066 15.95541146 10.35547755 18.60268093 11.5625 21.25 C12.41666031 23.11032802 13.27148781 24.97034984 14.12695312 26.83007812 C15.89275108 30.67103797 17.65507361 34.51356259 19.41455078 38.35742188 C22.89242173 45.95273876 26.39649425 53.53591326 29.90036011 61.1192627 C31.00994727 63.52153598 32.11854112 65.92426516 33.22680664 68.32714844 C38.63748895 80.05780326 44.06568559 91.78027693 49.5 103.5 C56.45724258 118.50542739 63.41143385 133.51227655 70.3293457 148.53588867 C71.0619893 150.12680069 71.79465531 151.71770238 72.52734375 153.30859375 C72.88929337 154.09457443 73.25124298 154.88055511 73.62416077 155.69035339 C75.96961004 160.77864912 78.33032507 165.85962106 80.70013428 170.93661499 C82.31402536 174.39647781 83.92192225 177.85910782 85.5289917 181.32214355 C86.2968717 182.97279629 87.0675522 184.62214933 87.84112549 186.2701416 C88.90513454 188.53752671 89.95948695 190.8091623 91.01171875 193.08203125 C91.33153214 193.7571022 91.65134552 194.43217316 91.98085022 195.12770081 C92.71459003 196.72529964 93.36617002 198.36019644 94 200 C93.67 200.66 93.34 201.32 93 202 C92.08599617 200.37510431 91.17208202 198.75015813 90.25854492 197.125 C89.44898713 195.68666747 88.6379073 194.24919073 87.82543945 192.8125 C85.78827583 189.20548752 83.77117465 185.59200761 81.8203125 181.9375 C69.02464424 158.16865701 51.44772757 140.6513184 29.875 124.6875 C7.14104629 103.43619544 0.04783399 56.36861083 -1.13623047 26.57177734 C-1.59810885 5.47168129 -1.59810885 5.47168129 0 0 Z " fill="#F0ECE3" transform="translate(381,88)"/><path d="M0 0 C4.89529395 2.66734727 9.23277174 5.56226975 13.5625 9.0625 C14.79543622 10.04574435 16.02851305 11.02881241 17.26171875 12.01171875 C17.88353027 12.50978027 18.5053418 13.0078418 19.14599609 13.52099609 C21.47244288 15.37688425 23.81757544 17.20807095 26.16381836 19.03881836 C32.5201275 24.00216262 38.79053417 29.06487423 45.03857422 34.16357422 C49.3241126 37.65507316 53.64311384 41.0980478 58 44.5 C63.73802304 48.98037415 69.39371495 53.5551921 75.0324707 58.15966797 C79.37755126 61.70111623 83.76448158 65.18157626 88.1875 68.625 C93.27156162 72.58690387 98.21361702 76.68502441 103.10839844 80.87768555 C106.97206538 84.17161939 110.92589176 87.32609286 114.9375 90.4375 C120.41649873 94.6917455 125.71381026 99.11868291 130.95849609 103.65771484 C135.3160576 107.42724443 139.74969791 111.09043017 144.22265625 114.72265625 C147.90475925 117.74187714 151.53062893 120.82501945 155.15771484 123.90991211 C158.63262479 126.85971308 162.14462023 129.75671652 165.6875 132.625 C170.1275756 136.23901502 174.4035452 139.99778244 178.6328125 143.85546875 C181.54169102 146.49073989 184.51501747 149.04598066 187.50390625 151.58984375 C189 153 189 153 190 155 C185.935091 154.45036808 182.62411539 153.57764337 178.9296875 151.8046875 C177.96579102 151.34384766 177.00189453 150.88300781 176.00878906 150.40820312 C174.45756348 149.64926758 174.45756348 149.64926758 172.875 148.875 C171.77897461 148.34583984 170.68294922 147.81667969 169.55371094 147.27148438 C161.31730019 143.24997237 153.28139883 138.91296237 145.25 134.5 C135.59432216 129.20423208 125.84815193 124.65433654 115.625 120.5625 C89.53781304 110.10196457 71.11584734 94.13300549 51.35342407 74.52764893 C50.30142442 73.48435904 49.2480627 72.44244044 48.19320679 71.40203857 C42.07942692 65.36211285 36.33390677 59.22006318 30.97680664 52.48095703 C28.93416445 49.91737423 26.81993269 47.42661199 24.6875 44.9375 C14.50871512 32.45912975 1.71412501 16.41842626 0 0 Z " fill="#F0ECE3" transform="translate(154,157)"/><path d="M0 0 C6.12181367 3.72908816 12.00165436 7.66270504 17.75 11.9375 C24.2038107 16.73359873 30.76623842 21.3574972 37.375 25.9375 C38.36483887 26.62352295 39.35467773 27.3095459 40.37451172 28.01635742 C41.35436035 28.69545166 42.33420898 29.3745459 43.34375 30.07421875 C48.20404523 33.44299049 53.04674259 36.83550091 57.875 40.25 C58.55506104 40.73090088 59.23512207 41.21180176 59.93579102 41.70727539 C61.28565298 42.66235572 62.63534584 43.61767511 63.98486328 44.57324219 C67.42577347 47.00947664 70.86878544 49.44273167 74.3125 51.875 C75.35349854 52.61024902 75.35349854 52.61024902 76.41552734 53.36035156 C82.783762 57.85437675 89.1702924 62.3220924 95.55786133 66.78857422 C101.57257099 70.99603358 107.57279994 75.22349183 113.56640625 79.4609375 C119.87570741 83.91872411 126.20558983 88.34683447 132.53662109 92.77368164 C138.78065353 97.14159846 145.01237875 101.52659707 151.23217773 105.92895508 C155.93254295 109.25457273 160.65727391 112.54266153 165.41015625 115.79296875 C165.93480469 116.19128906 166.45945312 116.58960938 167 117 C167 117.33 167 117.66 167 118 C159.67583103 117.52974998 152.96334524 116.15158218 145.9375 114.0625 C144.90383301 113.76037598 143.87016602 113.45825195 142.80517578 113.14697266 C134.03908497 110.49718944 125.67375816 107.10082486 117.23828125 103.55737305 C110.38073639 100.75001191 103.69850637 98.81731977 96.4375 97.375 C77.42499961 93.55554718 62.91199634 83.25426585 49 70 C48.4647168 69.49194824 47.92943359 68.98389648 47.37792969 68.46044922 C27.56810093 49.53988155 11.64177869 26.81254674 0 2 C0 1.34 0 0.68 0 0 Z " fill="#F0ECE3" transform="translate(159,232)"/><path d="M0 0 C7.85601841 10.25260978 12.14545127 24.18176906 13 37 C13.0515625 37.67160156 13.103125 38.34320313 13.15625 39.03515625 C13.63673903 50.70703557 10.77722398 62.62125282 8.27886963 73.95028687 C5.2589739 87.74634143 3.14493051 101.6107064 1.25976562 115.60205078 C0.74743709 119.39396894 0.21831427 123.18328634 -0.3125 126.97265625 C-6.01475049 161.53119314 -6.01475049 161.53119314 4.375 193.9375 C7.870089 198.36700869 12.37085988 201.64212241 16.88623047 204.96850586 C22.21235607 208.93341274 27.21830248 213.35912744 29 220 C29.0273905 222.33317256 29.03001701 224.66685975 29 227 C23.65319486 224.35978449 18.32238459 221.68909189 13 219 C11.78957031 218.39043457 11.78957031 218.39043457 10.5546875 217.76855469 C-11.36449023 206.67849452 -29.82238422 193.84112113 -38.375 169.875 C-50.92445216 127.56224537 -31.55365472 86.67719024 -12 50 C-10.60862128 47.38312889 -9.23307819 44.75928641 -7.875 42.125 C-7.35679687 41.13757813 -6.83859375 40.15015625 -6.3046875 39.1328125 C-2.84090166 30.81557823 -2.30067543 21.82115042 -1.375 12.9375 C-1.2409375 11.69033203 -1.106875 10.44316406 -0.96875 9.15820312 C-0.64130219 6.1059218 -0.31850308 3.05322543 0 0 Z " fill="#F0ECE3" transform="translate(424,276)"/><path d="M0 0 C3.75035449 3.75035449 3.21112747 8.98853829 3.3125 14.0625 C3.29985231 25.67167285 -1.38682645 34.96928844 -6.14257812 45.29272461 C-9.87508212 53.49652036 -13.17965382 61.84964709 -16.4375 70.25 C-16.70038818 70.92294098 -16.96327637 71.59588196 -17.23413086 72.28921509 C-24.73873226 91.34965579 -24.73873226 91.34965579 -22.8125 111.375 C-21.60288546 114.10097343 -20.04097211 116.46992971 -18.375 118.9375 C-15.5948874 123.1368893 -15.12638221 127.03662601 -15 132 C-27.39274722 121.86047954 -41.32567004 109.85095796 -43.234375 92.92114258 C-44.57595905 71.34799199 -37.27022834 53.99262118 -23.3671875 37.66015625 C-20.07806338 33.96396231 -16.74556204 30.31063146 -13.359375 26.703125 C-8.24086859 20.83887594 -5.09609386 15.47893545 -2.6875 8.0625 C-2.42388672 7.28326172 -2.16027344 6.50402344 -1.88867188 5.70117188 C-1.24861977 3.80429017 -0.62279188 1.90261851 0 0 Z " fill="#F0ECE3" transform="translate(475,296)"/><path d="M0 0 C6.9386724 3.75090551 13.37227189 8.24080084 19.875 12.6875 C21.126779 13.54062013 22.37873505 14.39348054 23.63085938 15.24609375 C26.1893675 16.98876922 28.74694455 18.73279752 31.30371094 20.47802734 C36.69751459 24.15930971 42.0991777 27.8290265 47.5 31.5 C49.55209144 32.89582141 51.60417469 34.29165487 53.65625 35.6875 C60.43421268 40.29651462 67.21688808 44.89856899 74 49.5 C83.84586768 56.17909971 93.69056792 62.85990557 103.52246094 69.55957031 C108.55830493 72.9892231 113.60094046 76.4080329 118.66088867 79.80200195 C121.23339388 81.52807204 123.80315665 83.25820267 126.37280273 84.98852539 C127.60987407 85.81983604 128.84828927 86.64915088 130.08813477 87.47631836 C131.81742042 88.6301982 133.54190909 89.79094717 135.265625 90.953125 C136.25336914 91.61473633 137.24111328 92.27634766 138.25878906 92.95800781 C141.12062388 95.08985555 143.54080298 97.41969341 146 100 C141.00626056 100.19949725 137.18732017 99.66307815 132.4765625 98.0234375 C131.21147258 97.59736296 129.94599193 97.17244728 128.68017578 96.74853516 C128.01987366 96.52417786 127.35957153 96.29982056 126.67926025 96.06866455 C112.94133489 91.42976264 99.31291131 88.20558085 84.99072266 85.97802734 C57.07324301 81.51693301 32.76030859 59.51481615 16.1796875 37.27734375 C8.27027144 26.33524618 -0.23075356 14.01003762 0 0 Z " fill="#F0ECE3" transform="translate(170,302)"/><path d="M0 0 C3.48284332 0.58392225 6.33426425 1.47504571 9.4921875 3.046875 C10.77851074 3.68544434 10.77851074 3.68544434 12.09082031 4.33691406 C13.46898926 5.0363916 13.46898926 5.0363916 14.875 5.75 C15.8453418 6.23952148 16.81568359 6.72904297 17.81542969 7.23339844 C27.71127296 12.27840056 37.3679486 17.71802649 46.98876953 23.265625 C50.0695751 25.04007309 53.15724714 26.80209183 56.24609375 28.5625 C67.91781224 35.23256162 79.49779442 42.04268814 91 49 C91.58300873 49.35130981 92.16601746 49.70261963 92.76669312 50.0645752 C109.15019277 59.94937093 109.15019277 59.94937093 114 64 C114 64.66 114 65.32 114 66 C112.41676312 66.027193 110.83338938 66.04648306 109.25 66.0625 C108.36828125 66.07410156 107.4865625 66.08570313 106.578125 66.09765625 C104 66 104 66 102.13330078 65.51635742 C99.82186754 64.95688371 97.66251397 64.77727398 95.2890625 64.640625 C71.95792687 63.08176563 54.10369187 54.72402093 36 40 C35.44602539 39.55285645 34.89205078 39.10571289 34.32128906 38.64501953 C20.84886697 27.70102468 9.50587055 15.55323545 0 1 C0 0.67 0 0.34 0 0 Z " fill="#F0ECE3" transform="translate(180,378)"/><path d="M0 0 C4.29982234 1.5695169 8.17389271 3.71911564 12.125 6 C17.46105041 9.05068769 22.83946334 11.98185041 28.30249023 14.79907227 C49.79331555 25.89283995 66.702267 38.12298306 74.38647461 61.87890625 C76.61622511 69.58764973 77.34052689 76.99551983 77.3125 85 C77.32861328 85.92039062 77.34472656 86.84078125 77.36132812 87.7890625 C77.3692898 99.09464487 74.06261142 108.28833584 66.5625 116.75 C59.44444444 123 59.44444444 123 55 123 C52.89311544 113.2556589 53.54426734 105.74117845 57.80859375 96.7265625 C62.05879583 86.99987052 60.61586605 75.88604786 57.2578125 66.12890625 C53.56885523 56.95233863 48.42836379 49.46596611 42 42 C41.03513672 40.85144531 41.03513672 40.85144531 40.05078125 39.6796875 C31.79107708 30.14562897 22.32891262 21.61338863 12.81640625 13.34765625 C9.77525338 10.70118801 6.8469761 7.98186143 4 5.125 C3.236875 4.36445313 2.47375 3.60390625 1.6875 2.8203125 C0 1 0 1 0 0 Z " fill="#F0ECE3" transform="translate(203,429)"/><path d="M0 0 C15.07186817 5.43910476 30.21151029 8.71573507 45.95849609 11.54614258 C42.88919168 13.29168043 40.37188519 13.9017722 36.8684845 14.24221802 C35.84105133 14.34593719 34.81361816 14.44965637 33.75505066 14.55651855 C32.63343033 14.66153687 31.51181 14.76655518 30.35620117 14.87475586 C29.17038452 14.99209076 27.98456787 15.10942566 26.76281738 15.23031616 C23.51309023 15.55014253 20.26277338 15.86282457 17.01202607 16.17207956 C13.60310625 16.497847 10.19500654 16.83198945 6.78678894 17.16500854 C1.05832902 17.72346372 -4.67070432 18.27569357 -10.40014648 18.82397461 C-17.00705106 19.45627588 -23.61308012 20.09713622 -30.21867865 20.74292958 C-36.58704061 21.36542812 -42.95587545 21.9829422 -49.32497597 22.59783554 C-52.027821 22.8587944 -54.7305135 23.12125794 -57.43309593 23.38492203 C-61.21907331 23.75306604 -65.0055557 24.11548905 -68.79223633 24.47631836 C-69.9037355 24.58538513 -71.01523468 24.6944519 -72.16041565 24.80682373 C-78.15346225 25.37117991 -84.02189966 25.65392232 -90.04150391 25.54614258 C-86.95255596 23.92862631 -83.91263374 22.86417992 -80.55810547 21.89770508 C-71.71081572 19.33785046 -63.22182095 16.4348096 -56.35400391 10.04614258 C-54.67150932 6.84139099 -54.372292 5.11527276 -55.04150391 1.54614258 C-58.68339031 -3.50550631 -63.08210061 -5.40975711 -69.04150391 -6.45385742 C-93.50787637 -8.49687427 -115.92659466 2.69426547 -137.81494141 12.40161133 C-172.4849931 27.767179 -207.92469301 41.20332431 -246.04150391 44.54614258 C-247.15267578 44.65571289 -248.26384766 44.7652832 -249.40869141 44.87817383 C-278.18358195 47.37022555 -308.37039832 45.03614088 -336.04150391 36.54614258 C-336.04150391 36.21614258 -336.04150391 35.88614258 -336.04150391 35.54614258 C-329.08346735 36.268334 -322.2193475 37.27974724 -315.32275391 38.44067383 C-265.52699733 46.57562416 -221.52377685 33.4424781 -176.69824219 13.02319336 C-115.57188668 -14.81784764 -63.68549824 -23.08164648 0 0 Z " fill="#F0ECE3" transform="translate(811.04150390625,471.453857421875)"/><path d="M0 0 C0.66 0.33 1.32 0.66 2 1 C-8.93998042 7.58341718 -19.88196589 14.16294358 -30.87109375 20.6640625 C-46.74165163 30.0540448 -62.54965507 39.52413873 -78.20898438 49.26416016 C-79.94578534 50.3443434 -81.68384328 51.42251155 -83.42382812 52.49755859 C-93.97293548 59.01628371 -104.33844412 65.81156548 -114.67233276 72.66473389 C-116.11517842 73.62127357 -117.55893253 74.57644469 -119.00369263 75.53009033 C-128.30040451 81.67296134 -137.27150662 88.06868537 -146 95 C-146.89340088 95.70294189 -147.78680176 96.40588379 -148.70727539 97.13012695 C-151.10583426 99.02200948 -151.10583426 99.02200948 -153.48828125 101.48828125 C-181.12413143 129.12413143 -225.80176994 138.86595952 -261.625 151.0625 C-262.62898834 151.40459503 -263.63297668 151.74669006 -264.66738892 152.09915161 C-274.60518606 155.48470466 -284.54570973 158.85854766 -294.515625 162.1484375 C-321.86437921 171.20707541 -340.80488442 181.47896632 -359 204 C-359.67160156 204.81855469 -360.34320313 205.63710938 -361.03515625 206.48046875 C-363.05058032 208.96658634 -365.02753338 211.47962598 -367 214 C-367.50789062 214.64453125 -368.01578125 215.2890625 -368.5390625 215.953125 C-375.80103718 225.17152208 -382.92511286 234.44957185 -389.64697266 244.06982422 C-391.15507023 246.22121712 -392.67687939 248.36256906 -394.19921875 250.50390625 C-407.63859626 269.47018482 -420.31274098 288.90469908 -432 309 C-432.46889648 309.7940625 -432.93779297 310.588125 -433.42089844 311.40625 C-439.22825306 321.28155835 -444.01762027 331.17350298 -448.125 341.875 C-451.82962738 351.49254585 -455.73454893 359.78249884 -462 368 C-462.41330566 368.5451123 -462.82661133 369.09022461 -463.25244141 369.65185547 C-472.04447551 381.08249176 -483.28738718 392.70478339 -497 398 C-497.66 397.67 -498.32 397.34 -499 397 C-497.80117188 396.12601563 -497.80117188 396.12601563 -496.578125 395.234375 C-483.24825694 385.35252129 -469.90542428 373.97938335 -464 358 C-464.55945313 358.51046875 -465.11890625 359.0209375 -465.6953125 359.546875 C-467.92861071 361.57192353 -470.17092633 363.58632994 -472.42138672 365.59228516 C-473.48469577 366.54048187 -474.5461866 367.49072101 -475.60595703 368.44287109 C-487.23321429 378.85055826 -499.16281588 387.39281934 -513.25 394.1875 C-514.07266357 394.58670654 -514.89532715 394.98591309 -515.74291992 395.3972168 C-516.89884644 395.93342651 -516.89884644 395.93342651 -518.078125 396.48046875 C-518.76293945 396.79910889 -519.44775391 397.11774902 -520.15332031 397.44604492 C-522 398 -522 398 -525 397 C-524.35675781 396.61070312 -523.71351563 396.22140625 -523.05078125 395.8203125 C-496.52125835 379.39547236 -466.78948489 355.67672684 -457 325 C-457.60585938 325.0721875 -458.21171875 325.144375 -458.8359375 325.21875 C-464.91834595 325.8924937 -470.88302138 326.11713363 -477 326 C-474.06931421 323.55651261 -470.9654249 321.95914954 -467.51757812 320.35009766 C-447.43277581 310.93475723 -437.15560341 295.43239069 -426 277 C-425.54173828 276.24477051 -425.08347656 275.48954102 -424.61132812 274.71142578 C-413.82695326 256.77007645 -404.58167835 237.93538788 -395.1456604 219.26376343 C-394.03810027 217.07528409 -392.92501763 214.88968568 -391.8112793 212.7043457 C-387.66158017 204.52874869 -383.8314239 196.28398346 -380.3125 187.8125 C-379.64250977 186.22405273 -379.64250977 186.22405273 -378.95898438 184.60351562 C-375.82289253 177.12514276 -372.87361484 169.582785 -370 162 C-368.845 162.165 -367.69 162.33 -366.5 162.5 C-308.68531117 168.52423663 -249.96351619 126.39579507 -205 95 C-203.44937435 93.92685846 -201.89859916 92.85393296 -200.34765625 91.78125 C-191.30562033 85.49683499 -182.57121744 78.91003936 -174 72 C-173.0112085 71.20843506 -173.0112085 71.20843506 -172.00244141 70.40087891 C-163.78683 63.82336731 -155.70883387 57.1714392 -148 50 C-147.67 50.66 -147.34 51.32 -147 52 C-148.33347243 54.76787281 -149.72985971 57.39851373 -151.25 60.0625 C-151.69585449 60.8551123 -152.14170898 61.64772461 -152.60107422 62.46435547 C-157.38780941 70.86647968 -162.64261426 78.95373625 -168 87 C-157.54393146 81.8835658 -147.19253818 76.6252857 -137 71 C-129.19270766 66.6938064 -121.3144393 62.59388444 -113.3215332 58.64404297 C-105.32111245 54.68534906 -97.43607371 50.52216923 -89.54833984 46.34472656 C-84.87490166 43.8786126 -80.18662728 41.44092745 -75.5 39 C-68.61577406 35.41308422 -61.73945135 31.81209897 -54.875 28.1875 C-43.05024485 21.95148265 -31.17596184 15.81086408 -19.2890625 9.69433594 C-16.40860714 8.21049091 -13.53214525 6.71921465 -10.65625 5.2265625 C-9.20871117 4.48363836 -7.76083333 3.74137408 -6.3125 3 C-5.67803955 2.66790527 -5.0435791 2.33581055 -4.38989258 1.99365234 C-2.95633205 1.26717344 -1.48151351 0.62288451 0 0 Z " fill="#F0ECE3" transform="translate(527,571)"/><path d="M0 0 C-3.57601774 3.65113941 -7.16694169 6.70789168 -11.4375 9.5 C-12.07655273 9.9223291 -12.71560547 10.3446582 -13.37402344 10.77978516 C-19.97867484 15.08601787 -26.78153609 19.05108777 -33.58374023 23.03442383 C-71.14578671 43.38645626 -71.14578671 43.38645626 -99 74 C-99.33524876 77.75129837 -99.33524876 77.75129837 -99 81 C-90.78758905 85.60696224 -82.2701685 85.24318915 -73.0625 85.5625 C-71.32129883 85.62727539 -71.32129883 85.62727539 -69.54492188 85.69335938 C-66.69671768 85.79884842 -63.84843471 85.90096555 -61 86 C-72.27882587 94.81059805 -91.96500069 96.35041378 -106 97 C-107.13566406 97.05285156 -108.27132812 97.10570312 -109.44140625 97.16015625 C-120.77953633 97.43208221 -133.71864168 97.20177578 -143 90 C-144.64912547 86.70174905 -144.61631465 83.55143688 -144 80 C-132.96012151 55.30209001 -94.58723457 42.25829279 -72 31 C-73.29284912 31.03029297 -74.58569824 31.06058594 -75.91772461 31.09179688 C-123.22170718 32.191407 -123.22170718 32.191407 -144 32 C-141.0757513 30.05050087 -139.04949383 29.31664399 -135.70239258 28.39599609 C-134.08105156 27.94575577 -134.08105156 27.94575577 -132.42695618 27.48641968 C-131.26125595 27.16863556 -130.09555573 26.85085144 -128.89453125 26.5234375 C-127.70018967 26.19332672 -126.50584808 25.86321594 -125.27531433 25.52310181 C-122.10514718 24.64792525 -118.93373716 23.77745494 -115.76165771 22.90924072 C-112.52296293 22.02155338 -109.28597009 21.12770505 -106.04882812 20.234375 C-99.70077276 18.48389808 -93.35104009 16.73961466 -87 15 C-97.34071696 13.30656327 -107.70627854 12.03605157 -118.11328125 10.8359375 C-119.8210845 10.63722264 -121.52886301 10.43829509 -123.23661804 10.23916626 C-127.68647342 9.72086984 -132.13665426 9.20542356 -136.58691406 8.69061279 C-141.14603727 8.16268315 -145.70483987 7.63199977 -150.26367188 7.1015625 C-159.17547327 6.06504481 -168.08762165 5.03154414 -177 4 C-177 3.67 -177 3.34 -177 3 C-150.13799015 2.33956859 -123.27571658 1.69073328 -96.41306305 1.05699921 C-94.18396074 1.00434536 -91.95486386 0.95146864 -89.72576904 0.89849854 C-59.81183421 0.1895208 -29.92257854 -0.14630417 0 0 Z " fill="#F0ECE3" transform="translate(220,623)"/></g></svg>