<svg xmlns="http://www.w3.org/2000/svg" viewBox="0 0 200 200" fill="currentColor">
  <!-- Wing feathers (top) -->
  <path d="M95 10 C85 25, 60 35, 40 30 C55 45, 65 40, 75 38 C60 50, 38 52, 18 45 C38 62, 55 58, 68 52 C52 65, 30 72, 8 68 C30 80, 52 75, 65 66 C50 78, 32 88, 15 90 C38 92, 55 85, 68 76 C58 88, 45 98, 30 105 C50 100, 62 92, 72 82"/>

  <!-- Wing upper contour -->
  <path d="M95 10 C100 18, 108 28, 115 35 C112 30, 105 22, 95 10Z"/>

  <!-- Body and head -->
  <path d="M72 82 C80 75, 92 65, 105 58 C112 54, 122 50, 135 48 L165 38 C158 42, 148 46, 138 50 C125 55, 115 60, 108 65 C100 72, 95 78, 92 85 C90 90, 88 96, 85 105"/>

  <!-- Beak -->
  <path d="M135 48 L170 34 L165 38 L135 48Z"/>

  <!-- Body mass -->
  <path d="M72 82 C78 78, 85 72, 95 65 C102 60, 112 55, 125 50 C118 58, 108 65, 100 72 C94 78, 90 85, 87 92 C85 98, 82 108, 78 118 L68 108 C72 98, 74 90, 72 82Z"/>

  <!-- Legs -->
  <path d="M78 118 C75 130, 70 145, 62 165 L58 175 L55 172 L50 180 M62 165 L67 172 L64 175" stroke="currentColor" stroke-width="3" fill="none" stroke-linecap="round"/>

  <!-- Tail feathers -->
  <path d="M68 108 C60 115, 48 120, 35 128 C48 122, 55 118, 68 108Z"/>
</svg>
